<svg xmlns="http://www.w3.org/2000/svg" viewBox="0 0 64 64" width="64" height="64">
  <defs>
    <linearGradient id="brain-bg" x1="0" y1="0" x2="1" y2="1">
      <stop offset="0%" stop-color="#16b3ac"/>
      <stop offset="100%" stop-color="#3b82f6"/>
    </linearGradient>
  </defs>
  <rect width="64" height="64" rx="16" fill="url(#brain-bg)"/>
  <g>
    <path fill="#fff" d="M32 12c-5.523 0-10 4.477-10 10v2.09A7.001 7.001 0 0 0 14 31c0 2.21 1.343 4.104 3.273 4.93A7.001 7.001 0 0 0 20 49h24a7.001 7.001 0 0 0 2.727-13.07A5.001 5.001 0 0 0 50 31c0-3.314-2.686-6-6-6h-1v-3c0-5.523-4.477-10-10-10zm-8 10c0-4.418 3.582-8 8-8s8 3.582 8 8v3h-2a1 1 0 0 0-1 1v2h-2v-2a1 1 0 0 0-1-1h-2v-2a1 1 0 0 0-1-1h-2v-2zm-6 9a5 5 0 0 1 5-5h2v2a1 1 0 0 0 1 1h2v2a1 1 0 0 0 1 1h2v2a1 1 0 0 0 1 1h2v2a1 1 0 0 0 1 1h2v2a1 1 0 0 0 1 1h2v2a1 1 0 0 0 1 1h2v2a1 1 0 0 0 1 1h2a5 5 0 0 1-5 5H20a5 5 0 0 1-2-9.9V31zm32 0a3 3 0 0 1-3 3h-2v-2a1 1 0 0 0-1-1h-2v-2a1 1 0 0 0-1-1h-2v-2a1 1 0 0 0-1-1h-2v-2a1 1 0 0 0-1-1h-2v-2a1 1 0 0 0-1-1h-2v-2a1 1 0 0 0-1-1h-2v-2a1 1 0 0 0-1-1h-2a3 3 0 0 1 3-3h12a3 3 0 0 1 3 3v2.09A7.001 7.001 0 0 0 54 31z"/>
  </g>
</svg>
